<?xml version="1.0" ?><svg viewBox="0 0 128 128" xmlns="http://www.w3.org/2000/svg"><title/><g data-name="Gift" id="2b98f4b4-4dbb-4198-85c9-29edf8e49cac"><rect fill="#a54fe7" height="84" width="32" x="82" y="34"/><polygon fill="#e74fd0" points="114 45 82 60 82 49 114 34 114 45"/><polygon fill="#e74fd0" points="114 67 82 82 82 71 114 56 114 67"/><polygon fill="#e74fd0" points="114 89 82 104 82 93 114 78 114 89"/><polygon fill="#fecf59" points="14 101.32 14 118 83 118 83 102.24 83 94.76 83 78.24 83 70.76 83 63 14 63 14 71.68 14 77.32 14 95.68 14 101.32"/><polygon fill="#e74fd0" points="114 100 114 111 99.07 118 82 118 82 115 114 100"/><rect fill="#458cff" height="84" width="7" x="95" y="34"/><rect fill="#fec330" height="4" width="69" x="14" y="63"/><rect fill="#fecf59" height="10" width="88" x="9" y="53"/><rect fill="#e34848" height="10" width="20" x="41" y="53"/><rect fill="#e3b132" height="10" width="11" x="86" y="53"/><rect fill="#e3b132" height="55" transform="translate(176 181) rotate(180)" width="10" x="83" y="63"/><path d="M55,53H29a9.52,9.52,0,0,1,11.69-9.3l7.39,3.77,5.14,2.62A3.27,3.27,0,0,1,55,53Z" fill="#e34848"/><path d="M55,53H48.55A4,4,0,0,1,47,50a3.74,3.74,0,0,1,1.08-2.53l5.14,2.62A3.27,3.27,0,0,1,55,53Z" fill="#b03838"/><path d="M47,53H73a9.55,9.55,0,0,0-11.69-9.3L48.78,50.09A3.27,3.27,0,0,0,47,53Z" fill="#e34848"/><path d="M99.86,34H87.75a4.44,4.44,0,0,1,5.45-4.33l3.44,1.76L99,32.64A1.52,1.52,0,0,1,99.86,34Z" fill="#45c1ff"/><path d="M14,77.32a4.5,4.5,0,1,0,0-5.64Z" fill="#ff8a75"/><circle cx="34.5" cy="74.5" fill="#ff8a75" r="4.5"/><circle cx="51.5" cy="74.5" fill="#458cff" r="4.5"/><circle cx="68.5" cy="74.5" fill="#ff8a75" r="4.5"/><path d="M83,70.76v7.48a4.5,4.5,0,0,1,0-7.48Z" fill="#ff8a75"/><circle cx="25.5" cy="86.5" fill="#ff8a75" r="4.5"/><circle cx="42.5" cy="86.5" fill="#ff8a75" r="4.5"/><circle cx="59.5" cy="86.5" fill="#ff8a75" r="4.5"/><circle cx="76.5" cy="86.5" fill="#ff8a75" r="4.5"/><path d="M14,101.32a4.5,4.5,0,1,0,0-5.64Z" fill="#ff8a75"/><circle cx="34.5" cy="98.5" fill="#ff8a75" r="4.5"/><circle cx="51.5" cy="98.5" fill="#458cff" r="4.5"/><circle cx="68.5" cy="98.5" fill="#ff8a75" r="4.5"/><path d="M83,94.76v7.48a4.5,4.5,0,0,1,0-7.48Z" fill="#ff8a75"/><circle cx="25.5" cy="110.5" fill="#ff8a75" r="4.5"/><circle cx="42.5" cy="110.5" fill="#ff8a75" r="4.5"/><circle cx="59.5" cy="110.5" fill="#ff8a75" r="4.5"/><circle cx="76.5" cy="110.5" fill="#ff8a75" r="4.5"/><path d="M99.86,34h-3a1.89,1.89,0,0,1-.72-1.4,1.74,1.74,0,0,1,.5-1.18L99,32.64A1.52,1.52,0,0,1,99.86,34Z" fill="#458cff"/><path d="M96.14,34h12.11a4.45,4.45,0,0,0-5.45-4.33l-5.84,3A1.52,1.52,0,0,0,96.14,34Z" fill="#45c1ff"/><rect fill="#e34848" height="55" width="18" x="42" y="63"/></g></svg>